<svg width="92" height="86" viewBox="0 0 92 86" fill="none" xmlns="http://www.w3.org/2000/svg">
<path d="M16.8334 30.7838L18.3988 31.3427C18.0494 32.0637 17.595 32.6583 17.0356 33.1266C16.4762 33.5948 15.8164 33.8894 15.0562 34.0102C14.298 34.1255 13.4433 34.0134 12.4921 33.6737C11.7964 33.4253 11.2097 33.0688 10.7321 32.6041C10.26 32.1413 9.9055 31.598 9.66863 30.9741C9.4337 30.3448 9.32514 29.6534 9.34294 28.8998C9.36812 28.1427 9.52918 27.3484 9.82613 26.5167L10.2483 25.3345C10.5452 24.5029 10.9227 23.7889 11.3808 23.1925C11.8462 22.5927 12.3719 22.1246 12.9577 21.7884C13.549 21.454 14.1847 21.2612 14.8649 21.2099C15.5451 21.1586 16.2521 21.264 16.9859 21.526C17.8827 21.8462 18.5808 22.2855 19.0801 22.8437C19.5794 23.402 19.8936 24.0412 20.0225 24.7614C20.1588 25.478 20.128 26.2423 19.9301 27.0541L18.3647 26.4952C18.4865 25.9136 18.515 25.3875 18.4502 24.917C18.3872 24.441 18.2043 24.0264 17.9015 23.6731C17.5986 23.3198 17.1401 23.0335 16.5259 22.8142C15.9987 22.626 15.498 22.5606 15.024 22.6181C14.5554 22.6775 14.1192 22.8435 13.7155 23.1161C13.3171 23.3906 12.9579 23.7618 12.6376 24.2296C12.3173 24.6975 12.0446 25.2467 11.8195 25.8772L11.3915 27.0757C11.1839 27.6573 11.0486 28.2249 10.9858 28.7785C10.9283 29.3341 10.9558 29.8495 11.068 30.3247C11.1802 30.7999 11.3895 31.2178 11.6959 31.5785C12.0041 31.9337 12.4219 32.2054 12.9492 32.3937C13.6177 32.6324 14.1882 32.7166 14.6607 32.6463C15.1332 32.576 15.5408 32.3784 15.8836 32.0534C16.2319 31.7303 16.5484 31.3071 16.8334 30.7838Z" fill="white"/>
<path d="M27.2025 24.9172L21.7113 37.0282L20.2447 36.3633L25.7359 24.2523L27.2025 24.9172Z" fill="white"/>
<path d="M31.667 31.0219L27.6811 39.4989L26.2239 38.8137L30.2098 30.3367L31.667 31.0219ZM31.1573 28.0366C31.2678 27.8016 31.4317 27.6363 31.6488 27.5407C31.8712 27.4475 32.1234 27.4673 32.4055 27.5999C32.6823 27.73 32.8557 27.9105 32.9259 28.1411C33.0012 28.3743 32.9836 28.6084 32.8731 28.8434C32.7675 29.068 32.6009 29.2256 32.3733 29.3163C32.1534 29.4042 31.905 29.3831 31.6282 29.253C31.3461 29.1204 31.1688 28.9413 31.0963 28.7159C31.0314 28.4876 31.0517 28.2612 31.1573 28.0366Z" fill="white"/>
<path d="M34.8427 42.2757C35.1757 42.4606 35.5213 42.5634 35.8796 42.5841C36.2378 42.6048 36.5736 42.5469 36.8869 42.4107C37.203 42.2693 37.4592 42.0518 37.6553 41.758L38.9874 42.4977C38.6932 42.9681 38.2784 43.3286 37.7431 43.5793C37.2157 43.8278 36.6383 43.9462 36.011 43.9345C35.3865 43.9178 34.7841 43.7483 34.2038 43.4261C33.5883 43.0843 33.1111 42.6774 32.7724 42.2054C32.4388 41.7363 32.2257 41.2284 32.1331 40.6819C32.0455 40.1381 32.0619 39.5795 32.1824 39.006C32.3106 38.4303 32.5275 37.8674 32.8329 37.3174L33.0094 36.9995C33.3148 36.4495 33.6766 35.9704 34.0947 35.5622C34.5207 35.1518 34.9876 34.84 35.4954 34.6269C36.0083 34.4166 36.5521 34.329 37.1267 34.3642C37.7063 34.4023 38.304 34.5922 38.9195 34.934C39.5604 35.2899 40.0476 35.7321 40.3812 36.2606C40.7177 36.7842 40.8975 37.3461 40.9206 37.9465C40.9515 38.5446 40.8227 39.1333 40.5341 39.7124L39.202 38.9727C39.3645 38.6206 39.4382 38.2621 39.423 37.8972C39.4128 37.535 39.3113 37.1948 39.1184 36.8764C38.9333 36.5558 38.6541 36.2918 38.2807 36.0845C37.8518 35.8463 37.4434 35.7317 37.0555 35.7408C36.6754 35.7476 36.3197 35.8472 35.9885 36.0395C35.665 36.2296 35.3688 36.4777 35.0998 36.7838C34.8386 37.0877 34.6086 37.4188 34.4096 37.7771L34.2331 38.0949C34.0342 38.4532 33.8733 38.826 33.7506 39.2134C33.6279 39.6008 33.5714 39.982 33.581 40.357C33.5957 40.7349 33.6991 41.0894 33.8915 41.4207C34.0917 41.7497 34.4088 42.0347 34.8427 42.2757Z" fill="white"/>
<path d="M49.0668 37.7853L40.5157 47.969L39.2825 46.9335L47.8336 36.7498L49.0668 37.7853ZM50.9217 44.4752L44.981 45.1957L41.7052 45.5426L42.7025 44.153L45.2138 43.7068L49.4234 43.217L50.9217 44.4752ZM43.7776 50.708L44.0911 45.138L45.6461 44.5785L45.223 51.9217L43.7776 50.708Z" fill="white"/>
<path d="M57.2179 53.4732L50.8869 57.5053L50.0219 56.1471L57.9228 51.1152L58.7413 52.4003L57.2179 53.4732ZM54.96 54.5212L54.582 53.8792C55.1254 53.54 55.6694 53.2928 56.2138 53.1376C56.7631 52.9794 57.2934 52.9256 57.8047 52.9764C58.316 53.0271 58.7912 53.1931 59.2304 53.4745C59.6745 53.7528 60.064 54.1548 60.3988 54.6806C60.6345 55.0505 60.7979 55.4254 60.8893 55.8052C60.9855 56.1818 60.9944 56.5559 60.9162 56.9273C60.838 57.2987 60.664 57.6593 60.3941 58.0091C60.1242 58.3589 59.7409 58.692 59.2444 59.0082L53.9795 62.3613L53.1191 61.0104L58.3183 57.6991C58.7321 57.4356 59.0182 57.1542 59.1765 56.8549C59.338 56.5605 59.3941 56.251 59.3449 55.9266C59.3005 55.599 59.1698 55.2649 58.9527 54.9241C58.6985 54.5249 58.4155 54.2364 58.1039 54.0586C57.7922 53.8807 57.461 53.7905 57.1104 53.788C56.7598 53.7855 56.4006 53.85 56.0328 53.9816C55.673 54.115 55.3154 54.2949 54.96 54.5212ZM58.9649 59.1657L58.1108 58.4369C58.5471 58.1659 59.0083 57.9714 59.4943 57.8534C59.9834 57.7404 60.4674 57.7161 60.9464 57.7805C61.4285 57.8499 61.8836 58.0219 62.3118 58.2966C62.7448 58.5683 63.121 58.9548 63.4403 59.4562C63.71 59.8797 63.8928 60.2902 63.9885 60.6877C64.0874 61.09 64.0913 61.4776 64.0003 61.8504C63.9172 62.2249 63.7327 62.5853 63.4469 62.9315C63.161 63.2778 62.7699 63.609 62.2733 63.9253L57.0814 67.2318L56.2164 65.8736L61.4229 62.5578C61.8659 62.2756 62.1642 61.9865 62.3176 61.6903C62.4791 61.3958 62.5279 61.0911 62.4641 60.7759C62.4082 60.4625 62.2702 60.133 62.05 59.7874C61.8609 59.4904 61.6424 59.2601 61.3944 59.0964C61.1465 58.9327 60.8828 58.8303 60.6035 58.7893C60.329 58.7451 60.051 58.7545 59.7695 58.8174C59.4911 58.8853 59.2229 59.0013 58.9649 59.1657Z" fill="white"/>
<path d="M59.6765 73.0793C59.4653 72.4622 59.3775 71.867 59.413 71.2936C59.4559 70.7238 59.6068 70.1933 59.8657 69.7021C60.1265 69.2163 60.4862 68.7882 60.945 68.4176C61.4038 68.0471 61.9445 67.7553 62.567 67.5422L62.911 67.4245C63.6318 67.1778 64.3099 67.0646 64.9452 67.0851C65.586 67.1037 66.1656 67.2286 66.684 67.4599C67.2024 67.6912 67.642 68.0044 68.0029 68.3994C68.3638 68.7944 68.6293 69.2403 68.7994 69.7372C69.0162 70.3707 69.0939 70.9541 69.0324 71.4876C68.9729 72.0265 68.797 72.5106 68.5047 72.9401C68.218 73.3676 67.834 73.7431 67.3529 74.0663C66.8773 74.3877 66.3283 74.655 65.7057 74.868L65.0259 75.1007L62.7607 68.4825L63.9975 68.0591L65.7441 73.1621L65.8588 73.1228C66.2445 72.9664 66.5987 72.7537 66.9214 72.4846C67.246 72.221 67.477 71.8979 67.6145 71.5153C67.752 71.1328 67.7319 70.6821 67.5544 70.1634C67.4366 69.8193 67.2545 69.5279 67.008 69.2889C66.767 69.0481 66.469 68.8725 66.114 68.7622C65.759 68.6519 65.3572 68.6095 64.9084 68.635C64.4596 68.6605 63.9676 68.7648 63.4325 68.948L63.0884 69.0657C62.668 69.2096 62.2917 69.4025 61.9596 69.6442C61.6349 69.8896 61.3716 70.1719 61.1697 70.4911C60.9697 70.8157 60.8457 71.1662 60.7976 71.5426C60.7514 71.9245 60.7993 72.3229 60.9413 72.7379C61.1245 73.273 61.3888 73.6889 61.7344 73.9854C62.0799 74.282 62.4832 74.5069 62.9444 74.6602L62.5294 75.8271C62.1746 75.735 61.8156 75.5864 61.4526 75.3812C61.0896 75.1761 60.7523 74.8858 60.4408 74.5105C60.1312 74.1406 59.8765 73.6636 59.6765 73.0793Z" fill="white"/>
</svg>
