<svg width="69" height="27" viewBox="0 0 69 27" fill="none" xmlns="http://www.w3.org/2000/svg">
<path d="M9.43451 11.4843L11.0662 11.8015C10.8292 12.5668 10.4694 13.223 9.98674 13.7701C9.50409 14.3171 8.89609 14.7075 8.16273 14.9412C7.43048 15.1693 6.56862 15.187 5.57715 14.9942C4.85197 14.8532 4.21837 14.5889 3.67636 14.2013C3.14001 13.8149 2.70784 13.331 2.37985 12.7498C2.05297 12.163 1.84167 11.4958 1.74596 10.7481C1.65701 9.99582 1.6968 9.18629 1.86532 8.31946L2.10488 7.08721C2.27339 6.22039 2.53925 5.45774 2.90245 4.79927C3.27241 4.13624 3.72169 3.59447 4.2503 3.17394C4.78457 2.75452 5.38408 2.46831 6.04882 2.31532C6.71357 2.16233 7.42836 2.16018 8.19321 2.30887C9.12802 2.49061 9.88421 2.81988 10.4618 3.29671C11.0394 3.77353 11.4461 4.35824 11.6818 5.05084C11.9244 5.73887 12.0088 6.49906 11.9352 7.33142L10.3035 7.01421C10.3366 6.42091 10.2856 5.89654 10.1507 5.4411C10.017 4.98 9.7738 4.59759 9.42127 4.29387C9.06874 3.99015 8.57237 3.77606 7.93217 3.6516C7.38261 3.54476 6.87784 3.5554 6.41784 3.68352C5.9635 3.81274 5.55725 4.04244 5.19907 4.37263C4.84657 4.70391 4.54718 5.1249 4.30091 5.63559C4.05463 6.14628 3.86761 6.73022 3.73985 7.38742L3.49699 8.63667C3.37914 9.24288 3.33076 9.82438 3.35187 10.3812C3.37865 10.9391 3.48324 11.4445 3.66565 11.8974C3.84806 12.3503 4.11782 12.732 4.47491 13.0425C4.83311 13.3473 5.28698 13.5531 5.83654 13.66C6.5334 13.7955 7.11009 13.7929 7.56663 13.6524C8.02317 13.5118 8.39645 13.2551 8.68648 12.8823C8.98217 12.5106 9.23152 12.0446 9.43451 11.4843ZM16.5442 3.40319L14.0065 16.4565L12.4258 16.1492L14.9635 3.09589L16.5442 3.40319ZM20.0262 8.08417L18.2386 17.2793L16.658 16.972L18.4456 7.77687L20.0262 8.08417ZM18.8007 5.31474C18.8503 5.05979 18.9686 4.85937 19.1558 4.71347C19.3485 4.56868 19.5979 4.52603 19.9038 4.5855C20.2041 4.64388 20.4165 4.7763 20.541 4.98277C20.6711 5.19034 20.7114 5.4216 20.6619 5.67655C20.6145 5.92017 20.4916 6.11382 20.2932 6.25751C20.1015 6.39664 19.8555 6.43701 19.5552 6.37864C19.2493 6.31916 19.0335 6.18902 18.9079 5.98822C18.7891 5.78285 18.7534 5.55835 18.8007 5.31474ZM24.6605 17.3636C25.0344 17.4363 25.3948 17.427 25.7419 17.3357C26.0889 17.2444 26.3902 17.0854 26.646 16.8588C26.9028 16.6265 27.079 16.3403 27.1745 16.0002L28.6702 16.291C28.5361 16.8294 28.2534 17.3007 27.822 17.7048C27.3975 18.1044 26.8851 18.3958 26.2851 18.579C25.6861 18.7565 25.0609 18.782 24.4093 18.6553C23.7181 18.5209 23.1384 18.2818 22.6702 17.938C22.2077 17.5952 21.8478 17.1784 21.5905 16.6874C21.3388 16.1975 21.1814 15.6612 21.1183 15.0786C21.0619 14.4915 21.0938 13.8891 21.2138 13.2716L21.2832 12.9147C21.4033 12.2971 21.5989 11.7295 21.87 11.2119C22.1479 10.6897 22.4953 10.2487 22.9122 9.88875C23.3347 9.52993 23.8246 9.27827 24.3818 9.13378C24.9448 8.99039 25.5718 8.98588 26.263 9.12025C26.9825 9.26013 27.5828 9.5297 28.0637 9.92894C28.5458 10.3225 28.8908 10.8012 29.0987 11.3649C29.3134 11.924 29.3732 12.5236 29.2781 13.1636L27.7824 12.8729C27.8279 12.4878 27.7869 12.1241 27.6594 11.7818C27.5376 11.4406 27.3357 11.1485 27.0537 10.9056C26.7784 10.658 26.4311 10.4935 26.0119 10.412C25.5303 10.3184 25.1065 10.3359 24.7405 10.4647C24.3812 10.5889 24.0738 10.7937 23.8184 11.0792C23.5698 11.3601 23.365 11.6878 23.204 12.0622C23.0498 12.432 22.9336 12.818 22.8554 13.2203L22.786 13.5772C22.7078 13.9795 22.6704 14.3838 22.6737 14.7901C22.677 15.1965 22.7413 15.5764 22.8666 15.93C22.9975 16.2848 23.2057 16.5898 23.4912 16.8452C23.7835 17.0961 24.1732 17.2689 24.6605 17.3636ZM33.9911 6.79501L31.4535 19.8484L29.8728 19.5411L32.4104 6.48771L33.9911 6.79501ZM38.8584 11.7453L34.0129 15.2571L31.3167 17.1495L31.5147 15.4505L33.4942 13.8422L36.9378 11.3719L38.8584 11.7453ZM35.6346 20.6612L33.2068 15.6384L34.2952 14.3948L37.4872 21.0214L35.6346 20.6612ZM46.0072 15.0312L44.5748 22.3992L42.9941 22.0919L44.7817 12.8968L46.2774 13.1876L46.0072 15.0312ZM45.2134 17.3905L44.4875 17.2229C44.6154 16.5951 44.8105 16.0304 45.0726 15.5287C45.3359 15.0213 45.6619 14.5996 46.0506 14.2636C46.4393 13.9276 46.8869 13.6971 47.3933 13.5721C47.9008 13.4415 48.4605 13.4356 49.0724 13.5546C49.503 13.6383 49.8874 13.7777 50.2258 13.9728C50.5653 14.1623 50.8428 14.4132 51.0584 14.7256C51.274 15.038 51.4158 15.4124 51.4838 15.849C51.5519 16.2855 51.5297 16.7928 51.4173 17.3707L50.2262 23.4979L48.654 23.1923L49.8303 17.1415C49.9239 16.6599 49.9167 16.2587 49.8085 15.9378C49.7061 15.618 49.5202 15.3644 49.2509 15.1768C48.9827 14.9835 48.6504 14.8484 48.2538 14.7713C47.7892 14.6809 47.3851 14.6876 47.0416 14.7914C46.6981 14.8951 46.4047 15.0732 46.1616 15.3258C45.9185 15.5784 45.718 15.8834 45.5604 16.2408C45.4095 16.5937 45.2938 16.9769 45.2134 17.3905ZM51.3392 17.6818L50.2226 17.7999C50.3263 17.2967 50.5027 16.8283 50.7516 16.3946C51.0062 15.9619 51.3217 15.5941 51.6982 15.2909C52.0803 14.9889 52.5183 14.7772 53.0123 14.6556C53.5074 14.5285 54.0467 14.5216 54.6303 14.6351C55.1232 14.7309 55.5467 14.8808 55.901 15.0849C56.2609 15.2901 56.5448 15.5541 56.7525 15.8767C56.967 16.1947 57.1015 16.5766 57.156 17.0223C57.2104 17.4679 57.1815 17.9797 57.0692 18.5576L55.8945 24.5999L54.3138 24.2926L55.4918 18.2333C55.592 17.7177 55.5875 17.3024 55.4783 16.9871C55.3758 16.6674 55.1883 16.4222 54.9157 16.2516C54.6499 16.0764 54.3159 15.9498 53.9136 15.8716C53.568 15.8044 53.2505 15.8044 52.9611 15.8716C52.6717 15.9388 52.416 16.0596 52.1939 16.234C51.973 16.4027 51.7885 16.6108 51.6404 16.8584C51.498 17.107 51.3976 17.3815 51.3392 17.6818ZM62.0567 25.9742C61.4165 25.8498 60.8567 25.6292 60.3773 25.3126C59.9047 24.9914 59.52 24.5962 59.2232 24.1269C58.932 23.6587 58.7402 23.1334 58.6476 22.551C58.5551 21.9686 58.5716 21.3544 58.6971 20.7085L58.7665 20.3516C58.9119 19.6038 59.1518 18.9595 59.4862 18.4189C59.8217 17.8727 60.2189 17.4325 60.6778 17.0984C61.1367 16.7643 61.6273 16.5392 62.1496 16.4232C62.6719 16.3072 63.1909 16.2993 63.7064 16.3995C64.3636 16.5273 64.9082 16.7507 65.34 17.0699C65.7775 17.3901 66.1096 17.7839 66.3362 18.2513C66.564 18.7131 66.6981 19.233 66.7385 19.8112C66.7801 20.3837 66.7381 20.9929 66.6125 21.6388L66.4754 22.3442L59.6088 21.0092L59.8583 19.726L65.1527 20.7553L65.1758 20.6363C65.2325 20.224 65.2246 19.8109 65.1522 19.397C65.0854 18.9842 64.9205 18.6229 64.6574 18.313C64.3942 18.0031 63.9935 17.7959 63.4553 17.6913C63.0984 17.6219 62.7549 17.6345 62.4249 17.7291C62.096 17.818 61.7953 17.9888 61.5227 18.2416C61.2501 18.4943 61.0131 18.8216 60.8115 19.2234C60.6099 19.6252 60.4551 20.1037 60.3472 20.6589L60.2778 21.0158C60.193 21.4521 60.1726 21.8744 60.2167 22.2828C60.2676 22.6866 60.381 23.0556 60.5571 23.3897C60.7389 23.7249 60.981 24.0071 61.2833 24.2364C61.5913 24.4668 61.9606 24.6238 62.3912 24.7075C62.9464 24.8155 63.4386 24.7936 63.868 24.6418C64.2973 24.4901 64.6933 24.2526 65.056 23.9291L65.8608 24.8705C65.6041 25.1322 65.2964 25.3693 64.9376 25.5818C64.5788 25.7943 64.1591 25.942 63.6784 26.0249C63.2035 26.109 62.6629 26.0921 62.0567 25.9742Z" fill="white"/>
</svg>
