<svg width="41" height="66" viewBox="0 0 41 66" fill="none" xmlns="http://www.w3.org/2000/svg">
<path d="M8.09196 11.4429L8.78305 12.9547C8.02267 13.2071 7.27962 13.2961 6.5539 13.2217C5.82817 13.1473 5.15696 12.8798 4.54026 12.4192C3.92882 11.9563 3.41313 11.2655 2.9932 10.3469C2.68606 9.675 2.53248 9.00589 2.53248 8.33956C2.53488 7.67847 2.67706 7.0455 2.95901 6.44065C3.24622 5.83341 3.66607 5.2734 4.21858 4.76064C4.77873 4.25072 5.46037 3.8122 6.26348 3.44506L7.40516 2.92315C8.20828 2.55602 8.98327 2.32865 9.73015 2.24107C10.4847 2.15634 11.1867 2.20665 11.8362 2.39202C12.4882 2.58264 13.0697 2.90381 13.5808 3.35554C14.0919 3.80726 14.5095 4.38744 14.8334 5.09607C15.2293 5.96217 15.4014 6.76881 15.3495 7.51598C15.2976 8.26316 15.0585 8.93407 14.6323 9.52872C14.2137 10.1262 13.6445 10.6371 12.9246 11.0614L12.2335 9.54964C12.7353 9.23139 13.1322 8.88495 13.4242 8.51031C13.7215 8.13328 13.8911 7.71305 13.9331 7.24963C13.9751 6.7862 13.8605 6.25792 13.5894 5.66477C13.3566 5.15561 13.0543 4.7512 12.6825 4.45155C12.3132 4.15715 11.89 3.96031 11.4131 3.86102C10.9386 3.76699 10.422 3.76834 9.86332 3.86507C9.30467 3.9618 8.72089 4.14935 8.11199 4.4277L6.95456 4.95681C6.39291 5.21356 5.89177 5.51246 5.45114 5.8535C5.01292 6.1998 4.66265 6.57886 4.40034 6.99069C4.13804 7.40252 3.98446 7.84397 3.93962 8.31504C3.90003 8.78371 3.99661 9.27262 4.22937 9.78179C4.52452 10.4274 4.86204 10.895 5.24192 11.1847C5.62181 11.4743 6.04773 11.6286 6.5197 11.6476C6.99407 11.6719 7.51816 11.6037 8.09196 11.4429ZM18.8008 12.5254L6.70687 18.0541L6.03738 16.5896L18.1313 11.0609L18.8008 12.5254ZM17.0187 18.0806L8.49936 21.9752L7.82987 20.5107L16.3492 16.6161L17.0187 18.0806ZM18.5585 15.4729C18.7947 15.3649 19.0266 15.3446 19.2541 15.4119C19.484 15.4845 19.6638 15.6625 19.7934 15.946C19.9205 16.2242 19.9364 16.474 19.8408 16.6953C19.7477 16.9219 19.583 17.0892 19.3468 17.1972C19.1211 17.3004 18.8921 17.3131 18.6598 17.2352C18.4351 17.1603 18.2592 16.9837 18.132 16.7055C18.0024 16.422 17.9828 16.1708 18.0731 15.9518C18.171 15.7357 18.3328 15.5761 18.5585 15.4729ZM12.1662 27.2478C12.3246 27.5943 12.5418 27.8821 12.8179 28.1112C13.094 28.3404 13.3986 28.4931 13.7317 28.5693C14.0701 28.6431 14.4054 28.6199 14.7375 28.4998L15.371 29.8855C14.8551 30.0896 14.3073 30.1338 13.7277 30.018C13.1557 29.9051 12.6207 29.6579 12.1226 29.2763C11.6298 28.8924 11.2454 28.3986 10.9694 27.7949C10.6767 27.1546 10.534 26.5439 10.5413 25.9631C10.5511 25.3875 10.6808 24.8522 10.9305 24.3573C11.1826 23.8676 11.5273 23.4277 11.9644 23.0375C12.4093 22.6501 12.9178 22.3256 13.4899 22.064L13.8206 21.9129C14.3928 21.6513 14.9682 21.4803 15.547 21.3997C16.1334 21.322 16.6942 21.3481 17.2295 21.4778C17.7671 21.6128 18.2568 21.8649 18.6985 22.2341C19.1425 22.6086 19.5109 23.116 19.8037 23.7564C20.1084 24.4231 20.2383 25.0681 20.1933 25.6916C20.1536 26.3126 19.9649 26.8716 19.6273 27.3687C19.2974 27.8685 18.8445 28.2659 18.2685 28.5609L17.6351 27.1752C17.9747 26.9882 18.2467 26.7433 18.451 26.4405C18.6577 26.1429 18.7778 25.8088 18.8114 25.438C18.8526 25.0701 18.7845 24.692 18.6069 24.3035C18.4029 23.8574 18.1421 23.5229 17.8245 23.3C17.5145 23.08 17.1691 22.9491 16.7883 22.9074C16.4152 22.8686 16.0295 22.8926 15.6313 22.9794C15.2408 23.0691 14.8592 23.1991 14.4865 23.3695L14.1558 23.5207C13.7831 23.691 13.4325 23.8958 13.1039 24.1348C12.7753 24.3739 12.5036 24.6472 12.2888 24.9548C12.0765 25.2676 11.9494 25.6145 11.9078 25.9953C11.8737 26.3789 11.9599 26.7964 12.1662 27.2478ZM26.1904 28.6901L14.0964 34.2187L13.4269 32.7542L25.5209 27.2256L26.1904 28.6901ZM24.9949 35.5287L19.3198 33.63L16.2122 32.5376L17.7093 31.7104L20.169 32.3851L24.1814 33.7492L24.9949 35.5287ZM15.8673 38.0926L18.5407 33.1961L20.1854 33.358L16.652 39.809L15.8673 38.0926ZM26.4803 43.255L19.6538 46.3757L18.9844 44.9112L27.5037 41.0166L28.1372 42.4024L26.4803 43.255ZM24.0995 43.9816L23.8136 43.2937C24.3987 43.0326 24.9715 42.8628 25.5321 42.7842C26.098 42.7032 26.6306 42.7231 27.13 42.8438C27.6294 42.9645 28.0772 43.1945 28.4735 43.5337C28.875 43.8706 29.2053 44.3225 29.4644 44.8894C29.6468 45.2883 29.757 45.6821 29.7951 46.0709C29.8385 46.4572 29.7958 46.8289 29.6671 47.186C29.5384 47.5431 29.3163 47.8763 29.0008 48.1855C28.6852 48.4948 28.2598 48.7718 27.7244 49.0165L22.0474 51.6117L21.3815 50.155L26.9876 47.5923C27.4338 47.3883 27.7559 47.149 27.954 46.8744C28.1546 46.6051 28.2528 46.3063 28.2487 45.9782C28.2499 45.6476 28.1666 45.2986 27.9986 44.9312C27.8018 44.5008 27.5613 44.176 27.2771 43.9569C26.9929 43.7378 26.6774 43.6028 26.3305 43.552C25.9836 43.5011 25.6189 43.5155 25.2365 43.5952C24.8617 43.6776 24.4827 43.8065 24.0995 43.9816ZM27.4258 49.1339L26.6803 48.2944C27.1499 48.0861 27.6335 47.957 28.1311 47.9072C28.6311 47.8627 29.1139 47.9054 29.5794 48.0352C30.0473 48.1704 30.4744 48.4035 30.8605 48.7346C31.252 49.0634 31.5713 49.4981 31.8184 50.0387C32.0272 50.4954 32.1516 50.9272 32.1916 51.3341C32.2341 51.7462 32.1845 52.1306 32.0429 52.4872C31.909 52.8467 31.6766 53.1782 31.3458 53.4818C31.0149 53.7853 30.5818 54.0595 30.0464 54.3042L24.4482 56.8634L23.7787 55.3989L29.3927 52.8325C29.8703 52.6142 30.2056 52.3689 30.3985 52.0967C30.599 51.8273 30.6893 51.5322 30.6696 51.2112C30.6574 50.8932 30.5661 50.5478 30.3958 50.1751C30.2494 49.8549 30.0647 49.5966 29.8417 49.4003C29.6187 49.204 29.3717 49.0662 29.1007 48.987C28.8349 48.9055 28.5583 48.8764 28.2708 48.9C27.9857 48.9288 27.704 49.0068 27.4258 49.1339ZM26.9147 62.6753C26.6435 62.0822 26.4973 61.4985 26.476 60.9244C26.4624 60.3532 26.5601 59.8103 26.7692 59.2959C26.9806 58.7868 27.2963 58.3251 27.7162 57.9111C28.1362 57.497 28.6453 57.1532 29.2437 56.8796L29.5744 56.7284C30.2673 56.4117 30.9309 56.2321 31.5651 56.1897C32.2046 56.1448 32.7937 56.2119 33.3324 56.3908C33.8711 56.5697 34.3396 56.8378 34.7378 57.1952C35.1359 57.5526 35.4442 57.9702 35.6626 58.4478C35.9409 59.0567 36.0759 59.6296 36.0675 60.1665C36.0615 60.7087 35.9343 61.2079 35.686 61.6641C35.4429 62.1179 35.0979 62.5295 34.6511 62.8987C34.2096 63.2655 33.6897 63.5857 33.0913 63.8593L32.4377 64.158L29.5294 57.7961L30.7184 57.2526L32.9608 62.1579L33.071 62.1075C33.4393 61.9137 33.7708 61.667 34.0653 61.3674C34.3623 61.073 34.5603 60.7286 34.6592 60.3344C34.7582 59.9401 34.6937 59.4936 34.4658 58.9949C34.3146 58.6642 34.1046 58.3922 33.8357 58.1788C33.572 57.963 33.2581 57.8177 32.894 57.743C32.5298 57.6683 32.1257 57.6659 31.6816 57.7356C31.2376 57.8053 30.7583 57.9578 30.2439 58.1929L29.9132 58.3441C29.509 58.5289 29.1537 58.758 28.8471 59.0314C28.5482 59.3076 28.3141 59.6145 28.1448 59.9521C27.9779 60.295 27.8891 60.656 27.8784 61.0353C27.8702 61.4199 27.9572 61.8116 28.1396 62.2105C28.3748 62.7249 28.6789 63.1126 29.0521 63.3736C29.4252 63.6345 29.8488 63.8185 30.3229 63.9254L30.0252 65.1276C29.6631 65.0711 29.2912 64.9587 28.9097 64.7904C28.5281 64.6221 28.1638 64.3666 27.8168 64.0239C27.4722 63.6865 27.1715 63.237 26.9147 62.6753Z" fill="white"/>
</svg>
