<svg width="54" height="54" viewBox="0 0 64 64" fill="none" xmlns="http://www.w3.org/2000/svg">
<rect width="64" height="64" rx="32" fill="#181818"/>
<path fill-rule="evenodd" clip-rule="evenodd" d="M18.6667 25.3333C17.75 25.3333 17 24.5833 17 23.6667C17 22.75 17.75 22 18.6667 22H45.3333C46.25 22 47 22.75 47 23.6667C47 24.5833 46.25 25.3333 45.3333 25.3333H18.6667ZM18.6667 33.6667H45.3333C46.25 33.6667 47 32.9167 47 32C47 31.0833 46.25 30.3333 45.3333 30.3333H18.6667C17.75 30.3333 17 31.0833 17 32C17 32.9167 17.75 33.6667 18.6667 33.6667ZM18.6667 42H45.3333C46.25 42 47 41.25 47 40.3333C47 39.4167 46.25 38.6667 45.3333 38.6667H18.6667C17.75 38.6667 17 39.4167 17 40.3333C17 41.25 17.75 42 18.6667 42Z" fill="white"/>
</svg>
